<?xml version="1.0" standalone="no"?>
<!DOCTYPE svg PUBLIC "-//W3C//DTD SVG 20010904//EN"
 "http://www.w3.org/TR/2001/REC-SVG-20010904/DTD/svg10.dtd">
<svg version="1.0" xmlns="http://www.w3.org/2000/svg"
 width="1024.000000pt" height="1024.000000pt" viewBox="0 0 1024.000000 1024.000000"
 preserveAspectRatio="xMidYMid meet">
<metadata>
Created by potrace 1.14, written by Peter Selinger 2001-2017
</metadata>
<g transform="translate(0.000000,1024.000000) scale(0.100000,-0.100000)"
fill="#000000" stroke="none">
<path d="M0 5120 l0 -5120 5120 0 5120 0 0 5120 0 5120 -5120 0 -5120 0 0
-5120z m5378 2675 c136 -32 270 -132 357 -265 53 -81 68 -117 90 -211 15 -68
16 -158 10 -1069 -3 -547 -2 -1374 2 -1838 9 -954 7 -1046 -30 -1144 -30 -78
-44 -101 -112 -188 -74 -93 -147 -146 -213 -154 -65 -8 -82 -15 -82 -31 0 -7
-7 -15 -15 -19 -8 -3 -15 -12 -15 -21 0 -8 -4 -15 -10 -15 -5 0 -10 -7 -10
-15 0 -16 -43 -21 -75 -9 -13 5 -14 8 -3 15 8 5 9 9 2 9 -8 0 -10 15 -7 44 l5
43 -103 7 c-245 16 -238 14 -292 65 -109 101 -182 216 -211 327 -21 81 -21 85
-12 1574 4 729 3 1546 -1 1815 -10 535 -6 636 25 687 11 18 23 52 27 75 4 29
16 50 40 72 18 16 39 46 46 65 7 20 16 36 20 36 4 0 38 20 75 45 101 68 131
80 279 109 47 9 155 5 213 -9z m1227 -1112 c106 -37 242 -167 300 -288 73
-151 80 -197 80 -510 0 -263 -1 -285 -23 -360 -79 -272 -251 -479 -522 -627
-108 -60 -408 -153 -428 -133 -8 8 -10 168 -14 985 l-3 645 33 56 c17 31 32
63 32 71 0 20 87 101 136 126 117 59 297 74 409 35z m-2378 -4 c99 -37 192
-149 251 -303 13 -36 15 -141 13 -831 -2 -434 -5 -792 -7 -794 -6 -6 -168 19
-231 35 -75 19 -268 117 -344 174 -139 104 -288 285 -345 420 -61 147 -76 223
-81 430 -5 176 8 410 27 494 5 22 18 51 29 65 12 14 32 49 45 78 13 28 33 54
43 57 11 4 25 17 31 31 12 26 73 74 137 108 110 57 325 75 432 36z m439 -3745
c53 -8 116 -98 94 -134 -6 -9 -88 -14 -337 -18 l-329 -5 -22 28 c-41 52 -17
116 51 137 23 7 489 0 543 -8z m1515 9 c173 -6 184 -8 206 -29 30 -31 29 -69
-3 -101 l-26 -26 -315 7 c-174 3 -323 11 -332 16 -14 8 -14 9 2 10 11 0 25 16
37 43 22 49 39 71 60 80 21 8 156 8 371 0z"/>
<path d="M5189 7301 c-24 -19 -24 -21 -27 -259 l-3 -239 26 -32 c33 -39 72
-41 114 -5 l31 26 -6 241 c-6 241 -6 242 -31 265 -30 27 -73 28 -104 3z"/>
<path d="M5190 6260 c-30 -30 -32 -50 -28 -283 3 -212 3 -216 27 -241 31 -33
71 -33 110 0 l31 26 0 219 c0 233 -6 265 -49 289 -31 16 -69 12 -91 -10z"/>
<path d="M5209 5255 c-44 -24 -49 -58 -49 -326 l0 -248 32 -37 c27 -31 36 -35
62 -30 16 4 40 16 53 28 23 21 23 23 23 278 0 289 -4 314 -56 336 -39 16 -33
17 -65 -1z"/>
<path d="M5184 4133 c-17 -25 -19 -53 -22 -258 -4 -249 2 -294 43 -321 29 -19
60 -14 99 17 l27 21 -3 260 -3 260 -28 24 c-40 34 -89 33 -113 -3z"/>
<path d="M6403 6146 l-28 -24 0 -254 c0 -226 2 -257 18 -281 25 -38 83 -38
120 1 l26 27 -6 258 -6 258 -25 20 c-33 26 -65 24 -99 -5z"/>
<path d="M3975 6137 l-35 -35 0 -245 0 -245 25 -31 c33 -38 60 -47 89 -28 58
38 56 28 56 302 0 249 0 254 -22 279 -13 14 -35 28 -50 32 -23 5 -34 0 -63
-29z"/>
</g>
</svg>
